<svg xmlns="http://www.w3.org/2000/svg" width="1920" height="380" viewBox="0 0 1920 380">
  <rect width="1920" height="380" fill="none"/>
  <path d="M 701.6,380.0 L 703.0,333.8 L 690.7,291.8 L 697.0,304.4 L 684.4,228.8 L 708.5,207.8 L 718.0,170.0 L 727.5,207.8 L 751.6,228.8 L 739.0,304.4 L 745.3,291.8 L 733.0,333.8 L 734.4,380.0 Z" fill="black"/>
  <path d="M 683.6,380.0 L 685.0,333.8 L 672.7,291.8 L 679.0,304.4 L 666.4,228.8 L 690.5,207.8 L 700.0,170.0 L 709.5,207.8 L 733.6,228.8 L 721.0,304.4 L 727.3,291.8 L 715.0,333.8 L 716.4,380.0 Z" fill="black"/>
  <path d="M 1179.5,380.0 L 1180.8,336.2 L 1169.1,296.4 L 1175.1,308.4 L 1163.2,236.7 L 1186.0,216.8 L 1195.0,181.0 L 1204.0,216.8 L 1226.8,236.7 L 1214.9,308.4 L 1220.9,296.4 L 1209.2,336.2 L 1210.5,380.0 Z" fill="black"/>
  <path d="M 697.6,380.0 L 698.5,336.4 L 686.8,296.8 L 692.5,308.7 L 680.3,237.4 L 703.1,217.6 L 712.0,182.0 L 720.9,217.6 L 743.7,237.4 L 732.1,308.7 L 738.2,296.8 L 726.9,336.4 L 728.4,380.0 Z" fill="black"/>
  <path d="M 1294.7,380.0 L 1296.0,336.9 L 1284.5,297.7 L 1290.4,309.4 L 1278.6,238.9 L 1301.2,219.3 L 1310.0,184.0 L 1318.8,219.3 L 1341.4,238.9 L 1329.6,309.4 L 1335.5,297.7 L 1324.0,336.9 L 1325.3,380.0 Z" fill="black"/>
  <path d="M 1117.7,380.0 L 1119.0,336.9 L 1107.5,297.7 L 1113.4,309.4 L 1101.6,238.9 L 1124.2,219.3 L 1133.0,184.0 L 1141.8,219.3 L 1164.4,238.9 L 1152.6,309.4 L 1158.5,297.7 L 1147.0,336.9 L 1148.3,380.0 Z" fill="black"/>
  <path d="M 286.8,380.0 L 289.0,337.1 L 278.1,298.1 L 284.6,309.8 L 273.8,239.6 L 296.2,220.1 L 305.0,185.0 L 313.8,220.1 L 336.2,239.6 L 323.6,309.8 L 328.9,298.1 L 316.8,337.1 L 317.2,380.0 Z" fill="black"/>
  <path d="M 663.8,380.0 L 665.1,337.1 L 653.6,298.1 L 659.5,309.8 L 647.8,239.6 L 670.2,220.1 L 679.0,185.0 L 687.8,220.1 L 710.2,239.6 L 698.5,309.8 L 704.4,298.1 L 692.9,337.1 L 694.2,380.0 Z" fill="black"/>
  <path d="M 1198.9,380.0 L 1201.0,337.3 L 1190.3,298.5 L 1196.7,310.2 L 1186.0,240.3 L 1208.3,220.9 L 1217.0,186.0 L 1225.7,220.9 L 1248.0,240.3 L 1235.5,310.2 L 1240.7,298.5 L 1228.8,337.3 L 1229.1,380.0 Z" fill="black"/>
  <path d="M 1650.6,380.0 L 1652.1,339.5 L 1641.6,302.7 L 1647.3,313.8 L 1636.6,247.5 L 1657.7,229.1 L 1666.0,196.0 L 1674.3,229.1 L 1695.4,247.5 L 1684.1,313.8 L 1689.4,302.7 L 1678.5,339.5 L 1679.4,380.0 Z" fill="black"/>
  <path d="M 268.7,380.0 L 269.6,339.7 L 258.7,303.1 L 264.0,314.1 L 252.7,248.2 L 273.8,229.9 L 282.0,197.0 L 290.2,229.9 L 311.3,248.2 L 300.6,314.1 L 306.3,303.1 L 295.8,339.7 L 297.3,380.0 Z" fill="black"/>
  <path d="M 1423.7,380.0 L 1424.9,339.7 L 1414.2,303.1 L 1419.7,314.1 L 1408.7,248.2 L 1429.8,229.9 L 1438.0,197.0 L 1446.2,229.9 L 1467.3,248.2 L 1456.3,314.1 L 1461.8,303.1 L 1451.1,339.7 L 1452.3,380.0 Z" fill="black"/>
  <path d="M 105.0,380.0 L 106.1,340.4 L 95.6,304.4 L 101.0,315.2 L 90.2,250.4 L 110.9,232.4 L 119.0,200.0 L 127.1,232.4 L 147.8,250.4 L 137.0,315.2 L 142.4,304.4 L 131.9,340.4 L 133.0,380.0 Z" fill="black"/>
  <path d="M 1811.0,380.0 L 1811.8,340.4 L 1801.1,304.4 L 1806.3,315.2 L 1795.2,250.4 L 1815.9,232.4 L 1824.0,200.0 L 1832.1,232.4 L 1852.8,250.4 L 1842.3,315.2 L 1847.9,304.4 L 1837.6,340.4 L 1839.0,380.0 Z" fill="black"/>
  <path d="M 1673.1,380.0 L 1673.7,340.8 L 1662.9,305.2 L 1667.8,315.9 L 1656.5,251.8 L 1677.0,234.0 L 1685.0,202.0 L 1693.0,234.0 L 1713.5,251.8 L 1703.4,315.9 L 1709.1,305.2 L 1699.1,340.8 L 1700.9,380.0 Z" fill="black"/>
  <path d="M 917.2,380.0 L 918.0,341.1 L 907.5,305.7 L 912.6,316.3 L 901.7,252.6 L 922.0,234.9 L 930.0,203.0 L 938.0,234.9 L 958.3,252.6 L 948.0,316.3 L 953.5,305.7 L 943.4,341.1 L 944.8,380.0 Z" fill="black"/>
  <path d="M 910.4,380.0 L 911.5,341.5 L 901.2,306.5 L 906.5,317.0 L 896.0,254.0 L 916.1,236.5 L 924.0,205.0 L 931.9,236.5 L 952.0,254.0 L 941.5,317.0 L 946.8,306.5 L 936.5,341.5 L 937.6,380.0 Z" fill="black"/>
  <path d="M 1562.3,380.0 L 1564.1,341.5 L 1554.2,306.5 L 1559.9,317.0 L 1550.0,254.0 L 1570.1,236.5 L 1578.0,205.0 L 1585.9,236.5 L 1606.0,254.0 L 1594.9,317.0 L 1599.8,306.5 L 1589.1,341.5 L 1589.7,380.0 Z" fill="black"/>
  <path d="M 1560.4,380.0 L 1561.3,341.7 L 1550.9,306.9 L 1555.9,317.4 L 1545.2,254.7 L 1565.2,237.3 L 1573.0,206.0 L 1580.8,237.3 L 1600.8,254.7 L 1590.7,317.4 L 1596.1,306.9 L 1586.1,341.7 L 1587.6,380.0 Z" fill="black"/>
  <path d="M 1625.4,380.0 L 1626.0,341.7 L 1615.4,306.9 L 1620.2,317.4 L 1609.2,254.7 L 1629.2,237.3 L 1637.0,206.0 L 1644.8,237.3 L 1664.8,254.7 L 1655.0,317.4 L 1660.6,306.9 L 1650.8,341.7 L 1652.6,380.0 Z" fill="black"/>
  <path d="M 1133.5,380.0 L 1135.2,341.9 L 1125.5,307.3 L 1131.1,317.7 L 1121.3,255.4 L 1141.2,238.1 L 1149.0,207.0 L 1156.8,238.1 L 1176.7,255.4 L 1165.7,317.7 L 1170.5,307.3 L 1160.0,341.9 L 1160.5,380.0 Z" fill="black"/>
  <path d="M 562.5,380.0 L 563.9,341.9 L 554.0,307.3 L 559.4,317.7 L 549.3,255.4 L 569.2,238.1 L 577.0,207.0 L 584.8,238.1 L 604.7,255.4 L 594.0,317.7 L 599.0,307.3 L 588.7,341.9 L 589.5,380.0 Z" fill="black"/>
  <path d="M 1204.7,380.0 L 1205.8,342.6 L 1195.9,308.6 L 1201.0,318.8 L 1190.8,257.6 L 1210.3,240.6 L 1218.0,210.0 L 1225.7,240.6 L 1245.2,257.6 L 1235.0,318.8 L 1240.1,308.6 L 1230.2,342.6 L 1231.3,380.0 Z" fill="black"/>
  <path d="M 1014.8,380.0 L 1015.9,342.8 L 1006.0,309.0 L 1011.1,319.2 L 1001.0,258.3 L 1020.4,241.4 L 1028.0,211.0 L 1035.6,241.4 L 1055.0,258.3 L 1044.9,319.2 L 1050.0,309.0 L 1040.1,342.8 L 1041.2,380.0 Z" fill="black"/>
  <path d="M 1833.8,380.0 L 1834.9,342.8 L 1825.0,309.0 L 1830.1,319.2 L 1820.0,258.3 L 1839.4,241.4 L 1847.0,211.0 L 1854.6,241.4 L 1874.0,258.3 L 1863.9,319.2 L 1869.0,309.0 L 1859.1,342.8 L 1860.2,380.0 Z" fill="black"/>
  <path d="M 784.0,380.0 L 785.4,343.3 L 775.8,309.9 L 781.0,319.9 L 771.3,259.8 L 790.5,243.1 L 798.0,213.0 L 805.5,243.1 L 824.7,259.8 L 814.4,319.9 L 819.2,309.9 L 809.2,343.3 L 810.0,380.0 Z" fill="black"/>
  <path d="M 1508.1,380.0 L 1509.5,343.7 L 1500.0,310.7 L 1505.2,320.6 L 1495.6,261.2 L 1514.6,244.7 L 1522.0,215.0 L 1529.4,244.7 L 1548.4,261.2 L 1538.2,320.6 L 1543.0,310.7 L 1533.1,343.7 L 1533.9,380.0 Z" fill="black"/>
  <path d="M 1224.2,380.0 L 1225.6,343.9 L 1216.2,311.1 L 1221.3,321.0 L 1211.8,261.9 L 1230.6,245.5 L 1238.0,216.0 L 1245.4,245.5 L 1264.2,261.9 L 1254.1,321.0 L 1258.8,311.1 L 1249.0,343.9 L 1249.8,380.0 Z" fill="black"/>
  <path d="M 284.2,380.0 L 285.0,343.9 L 275.2,311.1 L 279.9,321.0 L 269.8,261.9 L 288.6,245.5 L 296.0,216.0 L 303.4,245.5 L 322.2,261.9 L 312.7,321.0 L 317.8,311.1 L 308.4,343.9 L 309.8,380.0 Z" fill="black"/>
  <path d="M 918.3,380.0 L 919.3,344.1 L 909.8,311.5 L 914.7,321.3 L 904.9,262.6 L 923.7,246.3 L 931.0,217.0 L 938.3,246.3 L 957.1,262.6 L 947.3,321.3 L 952.2,311.5 L 942.7,344.1 L 943.7,380.0 Z" fill="black"/>
  <path d="M 610.3,380.0 L 611.0,344.1 L 601.3,311.5 L 606.0,321.3 L 595.9,262.6 L 614.7,246.3 L 622.0,217.0 L 629.3,246.3 L 648.1,262.6 L 638.6,321.3 L 643.7,311.5 L 634.4,344.1 L 635.7,380.0 Z" fill="black"/>
  <path d="M 995.5,380.0 L 996.9,344.8 L 987.7,312.8 L 992.7,322.4 L 983.4,264.8 L 1001.8,248.8 L 1009.0,220.0 L 1016.2,248.8 L 1034.6,264.8 L 1024.7,322.4 L 1029.3,312.8 L 1019.7,344.8 L 1020.5,380.0 Z" fill="black"/>
  <path d="M 156.6,380.0 L 157.3,345.0 L 147.8,313.2 L 152.4,322.8 L 142.6,265.5 L 160.8,249.6 L 168.0,221.0 L 175.2,249.6 L 193.4,265.5 L 184.2,322.8 L 189.2,313.2 L 180.1,345.0 L 181.4,380.0 Z" fill="black"/>
  <path d="M 1442.7,380.0 L 1444.3,345.2 L 1435.5,313.6 L 1440.6,323.1 L 1431.7,266.2 L 1449.9,250.4 L 1457.0,222.0 L 1464.1,250.4 L 1482.3,266.2 L 1472.2,323.1 L 1476.5,313.6 L 1466.9,345.2 L 1467.3,380.0 Z" fill="black"/>
  <path d="M 978.7,380.0 L 979.1,345.2 L 969.5,313.6 L 973.8,323.1 L 963.7,266.2 L 981.9,250.4 L 989.0,222.0 L 996.1,250.4 L 1014.3,266.2 L 1005.4,323.1 L 1010.5,313.6 L 1001.7,345.2 L 1003.3,380.0 Z" fill="black"/>
  <path d="M 1479.8,380.0 L 1481.1,345.5 L 1472.1,314.1 L 1477.0,323.5 L 1467.9,267.0 L 1485.9,251.3 L 1493.0,223.0 L 1500.1,251.3 L 1518.1,267.0 L 1508.4,323.5 L 1512.9,314.1 L 1503.5,345.5 L 1504.2,380.0 Z" fill="black"/>
  <path d="M 1080.9,380.0 L 1081.9,345.9 L 1072.8,314.9 L 1077.5,324.2 L 1068.2,268.4 L 1086.0,252.9 L 1093.0,225.0 L 1100.0,252.9 L 1117.8,268.4 L 1108.5,324.2 L 1113.2,314.9 L 1104.1,345.9 L 1105.1,380.0 Z" fill="black"/>
  <path d="M 336.0,380.0 L 337.0,346.1 L 328.0,315.3 L 332.6,324.6 L 323.4,269.1 L 341.1,253.7 L 348.0,226.0 L 354.9,253.7 L 372.6,269.1 L 363.4,324.6 L 368.0,315.3 L 359.0,346.1 L 360.0,380.0 Z" fill="black"/>
  <path d="M 1488.1,380.0 L 1489.1,346.3 L 1480.1,315.7 L 1484.7,324.9 L 1475.5,269.8 L 1493.1,254.5 L 1500.0,227.0 L 1506.9,254.5 L 1524.5,269.8 L 1515.3,324.9 L 1519.9,315.7 L 1510.9,346.3 L 1511.9,380.0 Z" fill="black"/>
  <path d="M 814.4,380.0 L 815.3,347.2 L 806.6,317.4 L 811.1,326.4 L 802.2,272.7 L 819.3,257.8 L 826.0,231.0 L 832.7,257.8 L 849.8,272.7 L 840.9,326.4 L 845.4,317.4 L 836.7,347.2 L 837.6,380.0 Z" fill="black"/>
  <path d="M 1581.8,380.0 L 1582.7,348.3 L 1574.3,319.5 L 1578.6,328.2 L 1570.0,276.3 L 1586.5,261.9 L 1593.0,236.0 L 1599.5,261.9 L 1616.0,276.3 L 1607.4,328.2 L 1611.7,319.5 L 1603.3,348.3 L 1604.2,380.0 Z" fill="black"/>
  <path d="M 1115.0,380.0 L 1116.5,349.0 L 1108.7,320.8 L 1113.3,329.2 L 1105.4,278.5 L 1121.7,264.4 L 1128.0,239.0 L 1134.3,264.4 L 1150.6,278.5 L 1141.5,329.2 L 1145.3,320.8 L 1136.7,349.0 L 1137.0,380.0 Z" fill="black"/>
  <path d="M 226.0,380.0 L 227.2,349.0 L 219.2,320.8 L 223.6,329.2 L 215.4,278.5 L 231.7,264.4 L 238.0,239.0 L 244.3,264.4 L 260.6,278.5 L 251.8,329.2 L 255.8,320.8 L 247.4,349.0 L 248.0,380.0 Z" fill="black"/>
  <path d="M 1429.2,380.0 L 1429.8,349.6 L 1421.6,322.0 L 1425.5,330.3 L 1416.9,280.6 L 1432.8,266.8 L 1439.0,242.0 L 1445.2,266.8 L 1461.1,280.6 L 1453.1,330.3 L 1457.4,322.0 L 1449.6,349.6 L 1450.8,380.0 Z" fill="black"/>
  <path d="M 412.3,380.0 L 413.5,349.9 L 405.7,322.5 L 410.0,330.7 L 402.1,281.4 L 417.8,267.7 L 424.0,243.0 L 430.2,267.7 L 445.9,281.4 L 437.4,330.7 L 441.3,322.5 L 433.1,349.9 L 433.7,380.0 Z" fill="black"/>
  <path d="M 597.5,380.0 L 598.7,350.5 L 591.1,323.7 L 595.3,331.8 L 587.6,283.5 L 603.0,270.1 L 609.0,246.0 L 615.0,270.1 L 630.4,283.5 L 622.1,331.8 L 625.9,323.7 L 617.9,350.5 L 618.5,380.0 Z" fill="black"/>
  <path d="M 380.8,380.0 L 381.6,351.2 L 374.0,325.0 L 377.9,332.8 L 370.0,285.7 L 385.1,272.6 L 391.0,249.0 L 396.9,272.6 L 412.0,285.7 L 404.1,332.8 L 408.0,325.0 L 400.4,351.2 L 401.2,380.0 Z" fill="black"/>
  <path d="M 201.0,380.0 L 201.8,351.8 L 194.4,326.2 L 198.2,333.9 L 190.5,287.8 L 205.2,275.0 L 211.0,252.0 L 216.8,275.0 L 231.5,287.8 L 223.8,333.9 L 227.6,326.2 L 220.2,351.8 L 221.0,380.0 Z" fill="black"/>
  <path d="M 73.3,380.0 L 74.1,352.7 L 66.9,327.9 L 70.6,335.4 L 63.2,290.7 L 77.4,278.3 L 83.0,256.0 L 88.6,278.3 L 102.8,290.7 L 95.4,335.4 L 99.1,327.9 L 91.9,352.7 L 92.7,380.0 Z" fill="black"/>
  <path d="M 599.3,380.0 L 600.4,352.7 L 593.4,327.9 L 597.3,335.4 L 590.2,290.7 L 604.4,278.3 L 610.0,256.0 L 615.6,278.3 L 629.8,290.7 L 622.1,335.4 L 625.6,327.9 L 618.2,352.7 L 618.7,380.0 Z" fill="black"/>
  <path d="M 66.6,380.0 L 67.4,353.6 L 60.4,329.6 L 64.0,336.8 L 56.8,293.6 L 70.6,281.6 L 76.0,260.0 L 81.4,281.6 L 95.2,293.6 L 88.0,336.8 L 91.6,329.6 L 84.6,353.6 L 85.4,380.0 Z" fill="black"/>
  <path d="M 1316.6,380.0 L 1317.4,353.6 L 1310.4,329.6 L 1314.0,336.8 L 1306.8,293.6 L 1320.6,281.6 L 1326.0,260.0 L 1331.4,281.6 L 1345.2,293.6 L 1338.0,336.8 L 1341.6,329.6 L 1334.6,353.6 L 1335.4,380.0 Z" fill="black"/>
  <path d="M 399,211 L 407,211 L 398,161 L 390,161 Z" fill="black"/>
  <circle cx="394" cy="156" r="6" fill="black"/>
  <path d="M 726,232 L 734,232 L 738,173 L 730,173 Z" fill="black"/>
  <circle cx="734" cy="168" r="6" fill="black"/>
  <path d="M 891,228 L 899,228 L 895,182 L 887,182 Z" fill="black"/>
  <circle cx="891" cy="177" r="6" fill="black"/>
  <path d="M 1101,194 L 1109,194 L 1112,126 L 1104,126 Z" fill="black"/>
  <circle cx="1108" cy="121" r="6" fill="black"/>
  <path d="M 1290,212 L 1298,212 L 1292,138 L 1284,138 Z" fill="black"/>
  <circle cx="1288" cy="133" r="6" fill="black"/>
  <path d="M 360,221 L 368,221 L 363,178 L 355,178 Z" fill="black"/>
  <circle cx="359" cy="173" r="6" fill="black"/>
  <path d="M 437,191 L 445,191 L 458,143 L 450,143 Z" fill="black"/>
  <circle cx="454" cy="138" r="6" fill="black"/>
  <path d="M 106,244 L 114,244 L 128,189 L 120,189 Z" fill="black"/>
  <circle cx="124" cy="184" r="6" fill="black"/>
  <path d="M 1491,200 L 1499,200 L 1486,137 L 1478,137 Z" fill="black"/>
  <circle cx="1482" cy="132" r="6" fill="black"/>
  <path d="M 802,193 L 810,193 L 820,137 L 812,137 Z" fill="black"/>
  <circle cx="816" cy="132" r="6" fill="black"/>
  <path d="M 1778,210 L 1786,210 L 1787,155 L 1779,155 Z" fill="black"/>
  <circle cx="1783" cy="150" r="6" fill="black"/>
  <path d="M 1706,174 L 1714,174 L 1705,106 L 1697,106 Z" fill="black"/>
  <circle cx="1701" cy="101" r="6" fill="black"/>
  <path d="M 1270,228 L 1278,228 L 1291,153 L 1283,153 Z" fill="black"/>
  <circle cx="1287" cy="148" r="6" fill="black"/>
  <path d="M 202,214 L 210,214 L 214,167 L 206,167 Z" fill="black"/>
  <circle cx="210" cy="162" r="6" fill="black"/>
  <path d="M 376,173 L 384,173 L 386,110 L 378,110 Z" fill="black"/>
  <circle cx="382" cy="105" r="6" fill="black"/>
</svg>